# xmcd
#
# Track frame offsets: 
#        150
#        12780
#        28419
#        42371
#        56451
#        72158
#        88365
#        105326
#        117882
#        132880
#        149754
#        165833
#        182952
#
# Disc length: 2630 seconds
#
# Revision: 1
# Processed by: cddbd v1.5.2PL0 Copyright (c) Steve Scherf et al.
# Submitted via: ExactAudioCopyFreeDBPlugin 1.0
#
DISCID=b30a440d
DTITLE=Sławek Wierzcholski - Polski blues
DYEAR=1993
DGENRE=Blues
TTITLE0=Polski blues
TTITLE1=John Lee Hooker
TTITLE2=Ciężki dzień
TTITLE3=Poniedziałek rano
TTITLE4=Okno i cień
TTITLE5=Trudne chwile
TTITLE6=Refleksje
TTITLE7=On! On! On!
TTITLE8=Bywa różnie
TTITLE9=Wyścigi życia
TTITLE10=Ruszam w drogę
TTITLE11=Papieros na śniadanie
TTITLE12=Manifest bluesowy
EXTD=YEAR: 1993
EXTT0=
EXTT1=
EXTT2=
EXTT3=
EXTT4=
EXTT5=
EXTT6=
EXTT7=
EXTT8=
EXTT9=
EXTT10=
EXTT11=
EXTT12=
PLAYORDER=
